[ConversionWorker] Logging FFmpeg output to: ffmpeg_logs\ffmpeg_conversion_高冷11_wav_20250525_173914.log\n[ConversionWorker] Getting duration with command: ffprobe -v error -show_entries format=duration -of default=noprint_wrappers=1:nokey=1 Z:\Story\高冷\高冷11.wav\n[ConversionWorker] Duration for 高冷11.wav: 3473351 ms\n[ConversionWorker] Starting FFmpeg for 高冷11.wav: ffmpeg -i Z:\Story\高冷\高冷11.wav -b:a 128k -vn -y -loglevel error -stats -progress pipe:1 Z:\Story\高冷\高冷11.mp3\n[ConversionWorker] FFmpeg process started. PID: 28920\n[STDOUT RAW] bitrate= 123.6kbits/s\n[STDOUT RAW] total_size=74924\n[STDOUT RAW] out_time_us=4849958\n[STDOUT RAW] out_time_ms=4849958\n[STDOUT RAW] out_time=00:00:04.849958\n[STDOUT RAW] dup_frames=0\n[STDOUT RAW] drop_frames=0\n[STDOUT RAW] speed= 9.6x\n[STDOUT RAW] progress=continue\n[STDERR RAW] size=      73KiB time=00:00:04.84 bitrate= 123.6kbits/s speed= 9.6x\n[STDOUT RAW] bitrate= 126.1kbits/s\n[STDOUT RAW] total_size=152492\n[STDOUT RAW] out_time_us=9673958\n[STDOUT RAW] out_time_ms=9673958\n[STDOUT RAW] out_time=00:00:09.673958\n[STDOUT RAW] dup_frames=0\n[STDOUT RAW] drop_frames=0\n[STDOUT RAW] speed=9.51x\n[STDOUT RAW] progress=continue\n[STDERR RAW] size=     149KiB time=00:00:09.67 bitrate= 126.1kbits/s speed=9.51x\n[STDOUT RAW] bitrate= 126.5kbits/s\n[STDOUT RAW] total_size=233132\n[STDOUT RAW] out_time_us=14737958\n[STDOUT RAW] out_time_ms=14737958\n[STDOUT RAW] out_time=00:00:14.737958\n[STDOUT RAW] dup_frames=0\n[STDOUT RAW] drop_frames=0\n[STDOUT RAW] speed=9.55x\n[STDOUT RAW] progress=continue\n[STDERR RAW] size=     228KiB time=00:00:14.73 bitrate= 126.5kbits/s speed=9.55x\n[STDOUT RAW] bitrate= 123.3kbits/s\n[STDOUT RAW] total_size=1310720\n[STDOUT RAW] out_time_us=85033958\n[STDOUT RAW] out_time_ms=85033958\n[STDOUT RAW] out_time=00:01:25.033958\n[STDOUT RAW] dup_frames=0\n[STDOUT RAW] drop_frames=0\n[STDOUT RAW] speed=41.4x\n[STDOUT RAW] progress=continue\n[STDERR RAW] size=    1280KiB time=00:01:25.03 bitrate= 123.3kbits/s speed=41.4x\n[STDOUT RAW] bitrate= 117.3kbits/s\n[STDOUT RAW] total_size=2883584\n[STDOUT RAW] out_time_us=196729958\n[STDOUT RAW] out_time_ms=196729958\n[STDOUT RAW] out_time=00:03:16.729958\n[STDOUT RAW] dup_frames=0\n[STDOUT RAW] drop_frames=0\n[STDOUT RAW] speed=76.6x\n[STDOUT RAW] progress=continue\n[STDERR RAW] size=    2816KiB time=00:03:16.72 bitrate= 117.3kbits/s speed=76.6x\n[STDOUT RAW] bitrate= 123.3kbits/s\n[STDOUT RAW] total_size=4718592\n[STDOUT RAW] out_time_us=306097958\n[STDOUT RAW] out_time_ms=306097958\n[STDOUT RAW] out_time=00:05:06.097958\n[STDOUT RAW] dup_frames=0\n[STDOUT RAW] drop_frames=0\n[STDOUT RAW] speed=99.3x\n[STDOUT RAW] progress=continue\n[STDERR RAW] size=    4608KiB time=00:05:06.09 bitrate= 123.3kbits/s speed=99.3x\n[STDOUT RAW] bitrate= 127.1kbits/s\n[STDOUT RAW] total_size=6553600\n[STDOUT RAW] out_time_us=412417958\n[STDOUT RAW] out_time_ms=412417958\n[STDOUT RAW] out_time=00:06:52.417958\n[STDOUT RAW] dup_frames=0\n[STDOUT RAW] drop_frames=0\n[STDOUT RAW] speed= 115x\n[STDOUT RAW] progress=continue\n[STDERR RAW] size=    6400KiB time=00:06:52.41 bitrate= 127.1kbits/s speed= 115x\n[STDOUT RAW] bitrate= 125.9kbits/s\n[STDOUT RAW] total_size=8126464\n[STDOUT RAW] out_time_us=516217958\n[STDOUT RAW] out_time_ms=516217958\n[STDOUT RAW] out_time=00:08:36.217958\n[STDOUT RAW] dup_frames=0\n[STDOUT RAW] drop_frames=0\n[STDOUT RAW] speed= 126x\n[STDOUT RAW] progress=continue\n[STDERR RAW] size=    7936KiB time=00:08:36.21 bitrate= 125.9kbits/s speed= 126x\n[STDOUT RAW] bitrate= 125.4kbits/s\n[STDOUT RAW] total_size=9699328\n[STDOUT RAW] out_time_us=618985958\n[STDOUT RAW] out_time_ms=618985958\n[STDOUT RAW] out_time=00:10:18.985958\n[STDOUT RAW] dup_frames=0\n[STDOUT RAW] drop_frames=0\n[STDOUT RAW] speed= 134x\n[STDOUT RAW] progress=continue\n[STDERR RAW] size=    9472KiB time=00:10:18.98 bitrate= 125.4kbits/s speed= 134x\n[STDOUT RAW] bitrate= 127.5kbits/s\n[STDOUT RAW] total_size=11534336\n[STDOUT RAW] out_time_us=723553958\n[STDOUT RAW] out_time_ms=723553958\n[STDOUT RAW] out_time=00:12:03.553958\n[STDOUT RAW] dup_frames=0\n[STDOUT RAW] drop_frames=0\n[STDOUT RAW] speed= 140x\n[STDOUT RAW] progress=continue\n[STDERR RAW] size=   11264KiB time=00:12:03.55 bitrate= 127.5kbits/s speed= 140x\n[STDOUT RAW] bitrate= 127.0kbits/s\n[STDOUT RAW] total_size=13107200\n[STDOUT RAW] out_time_us=825385958\n[STDOUT RAW] out_time_ms=825385958\n[STDOUT RAW] out_time=00:13:45.385958\n[STDOUT RAW] dup_frames=0\n[STDOUT RAW] drop_frames=0\n[STDOUT RAW] speed= 146x\n[STDOUT RAW] progress=continue\n[STDERR RAW] size=   12800KiB time=00:13:45.38 bitrate= 127.0kbits/s speed= 146x\n[STDOUT RAW] bitrate= 126.4kbits/s\n[STDOUT RAW] total_size=14680064\n[STDOUT RAW] out_time_us=928801958\n[STDOUT RAW] out_time_ms=928801958\n[STDOUT RAW] out_time=00:15:28.801958\n[STDOUT RAW] dup_frames=0\n[STDOUT RAW] drop_frames=0\n[STDOUT RAW] speed= 150x\n[STDOUT RAW] progress=continue\n[STDERR RAW] size=   14336KiB time=00:15:28.80 bitrate= 126.4kbits/s speed= 150x\n[STDOUT RAW] bitrate= 127.7kbits/s\n[STDOUT RAW] total_size=16515072\n[STDOUT RAW] out_time_us=1034233958\n[STDOUT RAW] out_time_ms=1034233958\n[STDOUT RAW] out_time=00:17:14.233958\n[STDOUT RAW] dup_frames=0\n[STDOUT RAW] drop_frames=0\n[STDOUT RAW] speed= 154x\n[STDOUT RAW] progress=continue\n[STDERR RAW] size=   16128KiB time=00:17:14.23 bitrate= 127.7kbits/s speed= 154x\n[STDOUT RAW] bitrate= 127.0kbits/s\n[STDOUT RAW] total_size=18087936\n[STDOUT RAW] out_time_us=1139497958\n[STDOUT RAW] out_time_ms=1139497958\n[STDOUT RAW] out_time=00:18:59.497958\n[STDOUT RAW] dup_frames=0\n[STDOUT RAW] drop_frames=0\n[STDOUT RAW] speed= 158x\n[STDOUT RAW] progress=continue\n[STDERR RAW] size=   17664KiB time=00:18:59.49 bitrate= 127.0kbits/s speed= 158x\n[STDOUT RAW] bitrate= 126.9kbits/s\n[STDOUT RAW] total_size=19660800\n[STDOUT RAW] out_time_us=1239529958\n[STDOUT RAW] out_time_ms=1239529958\n[STDOUT RAW] out_time=00:20:39.529958\n[STDOUT RAW] dup_frames=0\n[STDOUT RAW] drop_frames=0\n[STDOUT RAW] speed= 160x\n[STDOUT RAW] progress=continue\n[STDERR RAW] size=   19200KiB time=00:20:39.52 bitrate= 126.9kbits/s speed= 160x\n[STDOUT RAW] bitrate= 126.4kbits/s\n[STDOUT RAW] total_size=20971520\n[STDOUT RAW] out_time_us=1326793958\n[STDOUT RAW] out_time_ms=1326793958\n[STDOUT RAW] out_time=00:22:06.793958\n[STDOUT RAW] dup_frames=0\n[STDOUT RAW] drop_frames=0\n[STDOUT RAW] speed= 161x\n[STDOUT RAW] progress=continue\n[STDERR RAW] size=   20480KiB time=00:22:06.79 bitrate= 126.4kbits/s speed= 161x\n[STDOUT RAW] bitrate= 126.8kbits/s\n[STDOUT RAW] total_size=22544384\n[STDOUT RAW] out_time_us=1422025958\n[STDOUT RAW] out_time_ms=1422025958\n[STDOUT RAW] out_time=00:23:42.025958\n[STDOUT RAW] dup_frames=0\n[STDOUT RAW] drop_frames=0\n[STDOUT RAW] speed= 162x\n[STDOUT RAW] progress=continue\n[STDERR RAW] size=   22016KiB time=00:23:42.02 bitrate= 126.8kbits/s speed= 162x\n[STDOUT RAW] bitrate= 126.6kbits/s\n[STDOUT RAW] total_size=24117248\n[STDOUT RAW] out_time_us=1523833958\n[STDOUT RAW] out_time_ms=1523833958\n[STDOUT RAW] out_time=00:25:23.833958\n[STDOUT RAW] dup_frames=0\n[STDOUT RAW] drop_frames=0\n[STDOUT RAW] speed= 164x\n[STDOUT RAW] progress=continue\n[STDERR RAW] size=   23552KiB time=00:25:23.83 bitrate= 126.6kbits/s speed= 164x\n[STDOUT RAW] bitrate= 127.8kbits/s\n[STDOUT RAW] total_size=25952256\n[STDOUT RAW] out_time_us=1624609958\n[STDOUT RAW] out_time_ms=1624609958\n[STDOUT RAW] out_time=00:27:04.609958\n[STDOUT RAW] dup_frames=0\n[STDOUT RAW] drop_frames=0\n[STDOUT RAW] speed= 166x\n[STDOUT RAW] progress=continue\n[STDOUT RAW] bitrate= 127.4kbits/s\n[STDOUT RAW] total_size=27525120\n[STDOUT RAW] out_time_us=1727833958\n[STDOUT RAW] out_time_ms=1727833958\n[STDOUT RAW] out_time=00:28:47.833958\n[STDOUT RAW] dup_frames=0\n[STDERR RAW] size=   25344KiB time=00:27:04.60 bitrate= 127.8kbits/s speed= 166x\n[STDOUT RAW] drop_frames=0\n[STDOUT RAW] speed= 168x\n[STDOUT RAW] progress=continue\n[STDERR RAW] size=   26880KiB time=00:28:47.83 bitrate= 127.4kbits/s speed= 168x\n[STDOUT RAW] bitrate= 126.8kbits/s\n[STDOUT RAW] total_size=29097984\n[STDOUT RAW] out_time_us=1835137958\n[STDOUT RAW] out_time_ms=1835137958\n[STDOUT RAW] out_time=00:30:35.137958\n[STDOUT RAW] dup_frames=0\n[STDOUT RAW] drop_frames=0\n[STDOUT RAW] speed= 169x\n[STDOUT RAW] progress=continue\n[STDERR RAW] size=   28416KiB time=00:30:35.13 bitrate= 126.8kbits/s speed= 169x\n[STDOUT RAW] bitrate= 127.5kbits/s\n[STDOUT RAW] total_size=30932992\n[STDOUT RAW] out_time_us=1940185958\n[STDOUT RAW] out_time_ms=1940185958\n[STDOUT RAW] out_time=00:32:20.185958\n[STDOUT RAW] dup_frames=0\n[STDOUT RAW] drop_frames=0\n[STDOUT RAW] speed= 171x\n[STDOUT RAW] progress=continue\n[STDERR RAW] size=   30208KiB time=00:32:20.18 bitrate= 127.5kbits/s speed= 171x\n[STDOUT RAW] bitrate= 127.2kbits/s\n[STDOUT RAW] total_size=32505856\n[STDOUT RAW] out_time_us=2044081958\n[STDOUT RAW] out_time_ms=2044081958\n[STDOUT RAW] out_time=00:34:04.081958\n[STDOUT RAW] dup_frames=0\n[STDOUT RAW] drop_frames=0\n[STDOUT RAW] speed= 172x\n[STDOUT RAW] progress=continue\n[STDERR RAW] size=   31744KiB time=00:34:04.08 bitrate= 127.2kbits/s speed= 172x\n[STDOUT RAW] bitrate= 127.9kbits/s\n[STDOUT RAW] total_size=34340864\n[STDOUT RAW] out_time_us=2147689958\n[STDOUT RAW] out_time_ms=2147689958\n[STDOUT RAW] out_time=00:35:47.689958\n[STDOUT RAW] dup_frames=0\n[STDOUT RAW] drop_frames=0\n[STDOUT RAW] speed= 174x\n[STDOUT RAW] progress=continue\n[STDERR RAW] size=   33536KiB time=00:35:47.68 bitrate= 127.9kbits/s speed= 174x\n[STDOUT RAW] bitrate= 127.4kbits/s\n[STDOUT RAW] total_size=35913728\n[STDOUT RAW] out_time_us=2255209958\n[STDOUT RAW] out_time_ms=2255209958\n[STDOUT RAW] out_time=00:37:35.209958\n[STDOUT RAW] dup_frames=0\n[STDOUT RAW] drop_frames=0\n[STDOUT RAW] speed= 175x\n[STDOUT RAW] progress=continue\n[STDERR RAW] size=   35072KiB time=00:37:35.20 bitrate= 127.4kbits/s speed= 175x\n[STDOUT RAW] bitrate= 127.9kbits/s\n[STDOUT RAW] total_size=37748736\n[STDOUT RAW] out_time_us=2361073958\n[STDOUT RAW] out_time_ms=2361073958\n[STDOUT RAW] out_time=00:39:21.073958\n[STDOUT RAW] dup_frames=0\n[STDOUT RAW] drop_frames=0\n[STDOUT RAW] speed= 176x\n[STDOUT RAW] progress=continue\n[STDERR RAW] size=   36864KiB time=00:39:21.07 bitrate= 127.9kbits/s speed= 176x\n[STDOUT RAW] bitrate= 127.8kbits/s\n[STDOUT RAW] total_size=39321600\n[STDOUT RAW] out_time_us=2461705958\n[STDOUT RAW] out_time_ms=2461705958\n[STDOUT RAW] out_time=00:41:01.705958\n[STDOUT RAW] dup_frames=0\n[STDOUT RAW] drop_frames=0\n[STDOUT RAW] speed= 177x\n[STDOUT RAW] progress=continue\n[STDERR RAW] size=   38400KiB time=00:41:01.70 bitrate= 127.8kbits/s speed= 177x\n[STDOUT RAW] bitrate= 127.6kbits/s\n[STDOUT RAW] total_size=40894464\n[STDOUT RAW] out_time_us=2563753958\n[STDOUT RAW] out_time_ms=2563753958\n[STDOUT RAW] out_time=00:42:43.753958\n[STDOUT RAW] dup_frames=0\n[STDOUT RAW] drop_frames=0\n[STDOUT RAW] speed= 178x\n[STDOUT RAW] progress=continue\n[STDERR RAW] size=   39936KiB time=00:42:43.75 bitrate= 127.6kbits/s speed= 178x\n[STDOUT RAW] bitrate= 127.6kbits/s\n[STDOUT RAW] total_size=42467328\n[STDOUT RAW] out_time_us=2663185958\n[STDOUT RAW] out_time_ms=2663185958\n[STDOUT RAW] out_time=00:44:23.185958\n[STDOUT RAW] dup_frames=0\n[STDOUT RAW] drop_frames=0\n[STDOUT RAW] speed= 178x\n[STDOUT RAW] progress=continue\n[STDOUT RAW] bitrate= 127.3kbits/s\n[STDERR RAW] size=   41472KiB time=00:44:23.18 bitrate= 127.6kbits/s speed= 178x\n[STDOUT RAW] total_size=44040192\n[STDOUT RAW] out_time_us=2766985958\n[STDOUT RAW] out_time_ms=2766985958\n[STDOUT RAW] out_time=00:46:06.985958\n[STDOUT RAW] dup_frames=0\n[STDOUT RAW] drop_frames=0\n[STDOUT RAW] speed= 179x\n[STDOUT RAW] progress=continue\n[STDERR RAW] size=   43008KiB time=00:46:06.98 bitrate= 127.3kbits/s speed= 179x\n[STDOUT RAW] bitrate= 128.0kbits/s\n[STDOUT RAW] total_size=45875200\n[STDOUT RAW] out_time_us=2867377958\n[STDOUT RAW] out_time_ms=2867377958\n[STDOUT RAW] out_time=00:47:47.377958\n[STDOUT RAW] dup_frames=0\n[STDOUT RAW] drop_frames=0\n[STDOUT RAW] speed= 179x\n[STDOUT RAW] progress=continue\n[STDERR RAW] size=   44800KiB time=00:47:47.37 bitrate= 128.0kbits/s speed= 179x\n[STDOUT RAW] bitrate= 127.7kbits/s\n[STDOUT RAW] total_size=47448064\n[STDOUT RAW] out_time_us=2972329958\n[STDOUT RAW] out_time_ms=2972329958\n[STDOUT RAW] out_time=00:49:32.329958\n[STDOUT RAW] dup_frames=0\n[STDOUT RAW] drop_frames=0\n[STDOUT RAW] speed= 180x\n[STDOUT RAW] progress=continue\n[STDERR RAW] size=   46336KiB time=00:49:32.32 bitrate= 127.7kbits/s speed= 180x\n[STDOUT RAW] bitrate= 127.3kbits/s\n[STDOUT RAW] total_size=48758784\n[STDOUT RAW] out_time_us=3063937958\n[STDOUT RAW] out_time_ms=3063937958\n[STDOUT RAW] out_time=00:51:03.937958\n[STDOUT RAW] dup_frames=0\n[STDOUT RAW] drop_frames=0\n[STDOUT RAW] speed= 180x\n[STDOUT RAW] progress=continue\n[STDERR RAW] size=   47616KiB time=00:51:03.93 bitrate= 127.3kbits/s speed= 180x\n[STDOUT RAW] bitrate= 127.6kbits/s\n[STDOUT RAW] total_size=50593792\n[STDOUT RAW] out_time_us=3173161958\n[STDOUT RAW] out_time_ms=3173161958\n[STDOUT RAW] out_time=00:52:53.161958\n[STDOUT RAW] dup_frames=0\n[STDOUT RAW] drop_frames=0\n[STDOUT RAW] speed= 181x\n[STDOUT RAW] progress=continue\n[STDERR RAW] size=   49408KiB time=00:52:53.16 bitrate= 127.6kbits/s speed= 181x\n[STDOUT RAW] bitrate= 127.4kbits/s\n[STDOUT RAW] total_size=52166656\n[STDOUT RAW] out_time_us=3274849958\n[STDOUT RAW] out_time_ms=3274849958\n[STDOUT RAW] out_time=00:54:34.849958\n[STDOUT RAW] dup_frames=0\n[STDOUT RAW] drop_frames=0\n[STDOUT RAW] speed= 182x\n[STDOUT RAW] progress=continue\n[STDERR RAW] size=   50944KiB time=00:54:34.84 bitrate= 127.4kbits/s speed= 182x\n[STDOUT RAW] bitrate= 127.9kbits/s\n[STDOUT RAW] total_size=54001664\n[STDOUT RAW] out_time_us=3376681958\n[STDOUT RAW] out_time_ms=3376681958\n[STDOUT RAW] out_time=00:56:16.681958\n[STDOUT RAW] dup_frames=0\n[STDOUT RAW] drop_frames=0\n[STDOUT RAW] speed= 182x\n[STDOUT RAW] progress=continue\n[STDERR RAW] size=   52736KiB time=00:56:16.68 bitrate= 127.9kbits/s speed= 182x\n[STDERR RAW] size=   54272KiB time=00:57:53.35 bitrate= 128.0kbits/s speed= 182x\n[STDOUT RAW] bitrate= 128.0kbits/s\n[STDOUT RAW] total_size=55574828\n[STDOUT RAW] out_time_us=3473351333\n[STDOUT RAW] out_time_ms=3473351333\n[STDOUT RAW] out_time=00:57:53.351333\n[STDOUT RAW] dup_frames=0\n[STDOUT RAW] drop_frames=0\n[STDOUT RAW] speed= 182x\n[STDOUT RAW] progress=end\n[ConversionWorker] STDERR pipe closed signal received.\n[ConversionWorker] Detected 'progress=end' for 高冷11.wav\n[ConversionWorker] STDOUT pipe closed signal received.\n[ConversionWorker] Process finished and both stream pipes closed. Exiting loop.\n[ConversionWorker] Waiting for reader threads to join...\n[ConversionWorker] FFmpeg process ended. Return code: 0\n[ConversionWorker] Closing FFmpeg log file.\n